<svg width="72" height="70" viewBox="0 0 72 70" fill="none" xmlns="http://www.w3.org/2000/svg">
<path fill-rule="evenodd" clip-rule="evenodd" d="M52.444 0H52.6167C63.3478 0.104668 71.9942 8.92632 72 19.7762C72 26.2503 69.1977 35.4365 63.7268 42.9954C53.3098 57.401 36.0012 70 36.0012 70C36.0012 70 18.6925 57.3987 8.27324 42.9954C2.80457 35.4365 0 26.2503 0 19.7762C0.00582591 8.92543 8.65361 0.1034 19.3856 0H19.5583C26.4292 0 32.5058 3.67588 36.0012 9.10007C39.4965 3.67588 45.5731 0 52.444 0ZM46.1014 41.2209C46.6735 42.7467 48.1039 43.7564 49.7024 43.7626L49.7093 43.772C51.6787 43.772 53.3308 42.2533 53.5391 40.2515C53.7475 38.2496 52.4449 36.4096 50.5196 35.986C48.5943 35.5625 46.6666 36.6918 46.0509 38.6041H42.9302L40.6529 31.6015C40.4801 31.0634 39.9889 30.6996 39.4349 30.6994H39.4096C38.8496 30.7058 38.3605 31.0882 38.2078 31.639L34.6367 44.3734L30.4428 18.6181C30.3494 17.9955 29.838 17.5275 29.2224 17.5012C28.6067 17.4748 28.0589 17.8976 27.915 18.51L23.6637 38.597H18.8999C18.4284 38.5766 17.9839 38.8221 17.7422 39.2364C17.5006 39.6508 17.5006 40.1672 17.7422 40.5815C17.9839 40.9958 18.4284 41.2413 18.8999 41.2209H24.6748C25.2634 41.2213 25.7764 40.8113 25.918 40.2273L28.9192 25.2871L33.0258 50.535C33.1226 51.141 33.6207 51.5954 34.2207 51.625H34.3012C34.8743 51.6241 35.3781 51.2364 35.5375 50.6736L39.5222 36.4406L40.7815 40.3189C40.9582 40.855 41.4484 41.2174 42.0018 41.2209H46.1014Z" fill="#FF9600"/>
</svg>
